<?xml version="1.0" encoding="utf-8"?>
<!-- Generator: Adobe Illustrator 27.5.0, SVG Export Plug-In . SVG Version: 6.00 Build 0)  -->
<svg version="1.1" xmlns="http://www.w3.org/2000/svg" xmlns:xlink="http://www.w3.org/1999/xlink" x="0px" y="0px"
	 viewBox="0 0 500 750" style="enable-background:new 0 0 500 750;" xml:space="preserve">
<g id="BACKGROUND">
	
		<rect x="-125" y="125" transform="matrix(6.123234e-17 -1 1 6.123234e-17 -125 625)" style="fill:#FFFFFF;" width="750" height="500"/>
</g>
<g id="OBJECTS">
	<g>
		<g>
			<g>
				<g>
					<path d="M326.565,141.346h-48.622c-5.171,0-9.378,4.207-9.378,9.378v102.705c0,5.171,4.207,9.378,9.378,9.378h48.622
						c5.171,0,9.378-4.207,9.378-9.378V150.725C335.944,145.553,331.737,141.346,326.565,141.346z M331.944,253.429
						c0,2.966-2.412,5.378-5.378,5.378h-48.622c-2.966,0-5.378-2.413-5.378-5.378V150.725c0-2.966,2.413-5.378,5.378-5.378h7.22
						l0.406,1.019c0.782,1.962,2.681,3.249,4.793,3.249h23.784c2.112,0,4.011-1.287,4.793-3.249l0.406-1.019h7.22
						c2.966,0,5.378,2.413,5.378,5.378V253.429z"/>
					<g>
						<path d="M312,254.037h-18.227c-1.104,0-2-0.896-2-2c0-1.105,0.896-2,2-2H312c1.105,0,2,0.895,2,2
							C314,253.141,313.105,254.037,312,254.037z"/>
					</g>
				</g>
				<g>
					<path d="M282.91,213.966h-6.07v-3.888c0-1.239-1.005-2.244-2.244-2.244h-13.921c-1.239,0-2.244,1.005-2.244,2.244v3.888h-9.691
						l-1.7-8.533c-0.539-2.705-2.913-4.652-5.671-4.652h-28.107c-2.758,0-5.132,1.948-5.671,4.652l-1.7,8.533h-34.169
						c-3.13,0-5.667,2.537-5.667,5.667v61.625c0,3.13,2.537,5.667,5.667,5.667h30.867c6.447,6.106,15.146,9.858,24.727,9.858
						c9.581,0,18.279-3.752,24.726-9.858h30.867c3.13,0,5.667-2.537,5.667-5.667v-61.625
						C288.577,216.503,286.04,213.966,282.91,213.966z"/>
					<g>
						<path style="fill:#FFFFFF;" d="M178.19,224.832c0,1.387-1.124,2.511-2.511,2.511c-1.387,0-2.511-1.124-2.511-2.511
							c0-1.387,1.124-2.511,2.511-2.511C177.066,222.321,178.19,223.445,178.19,224.832z"/>
					</g>
					<g>
						<path style="fill:#FFFFFF;" d="M187.698,224.832c0,1.387-1.124,2.511-2.511,2.511c-1.387,0-2.511-1.124-2.511-2.511
							c0-1.387,1.124-2.511,2.511-2.511C186.574,222.321,187.698,223.445,187.698,224.832z"/>
					</g>
					<g>
						<path style="fill:#FFFFFF;" d="M263.767,279.94c0,1.387-1.124,2.511-2.511,2.511c-1.387,0-2.511-1.124-2.511-2.511
							c0-1.387,1.124-2.511,2.511-2.511C262.642,277.429,263.767,278.553,263.767,279.94z"/>
					</g>
					<g>
						<path style="fill:#FFFFFF;" d="M273.275,279.94c0,1.387-1.124,2.511-2.511,2.511s-2.511-1.124-2.511-2.511
							c0-1.387,1.124-2.511,2.511-2.511S273.275,278.553,273.275,279.94z"/>
					</g>
					<g>
						<path style="fill:#FFFFFF;" d="M237.134,213.432H217.5c-1.063,0-1.924-0.861-1.924-1.924v-4.363
							c0-1.062,0.861-1.924,1.924-1.924h19.634c1.063,0,1.924,0.861,1.924,1.924v4.363
							C239.057,212.571,238.196,213.432,237.134,213.432z"/>
					</g>
					<g>
						<path style="fill:#FFFFFF;" d="M227.317,291.575c-18.26,0-33.116-14.855-33.116-33.116c0-18.26,14.855-33.116,33.116-33.116
							c18.26,0,33.115,14.855,33.115,33.116C260.432,276.719,245.577,291.575,227.317,291.575z M227.317,229.343
							c-16.055,0-29.116,13.061-29.116,29.116c0,16.055,13.061,29.116,29.116,29.116c16.054,0,29.115-13.061,29.115-29.116
							C256.432,242.404,243.371,229.343,227.317,229.343z"/>
					</g>
					<g>
						<circle style="fill:#FFFFFF;" cx="227.317" cy="258.459" r="25.632"/>
					</g>
				</g>
			</g>
			<path style="fill:#C9262B;" d="M368.924,158.361c-16.482-31.766-44.347-55.212-78.463-66.02
				c-34.118-10.809-70.399-7.683-102.165,8.798c-31.766,16.482-55.211,44.347-66.019,78.463
				c-10.808,34.116-7.683,70.399,8.798,102.165c16.482,31.766,44.347,55.212,78.463,66.02c13.411,4.249,27.001,6.268,40.375,6.268
				c56.856,0,109.747-36.515,127.808-93.53C388.528,226.412,385.405,190.126,368.924,158.361z M216.183,326.815
				c-28.514-9.033-51.804-28.629-65.579-55.179c-13.775-26.549-16.387-56.875-7.354-85.389
				c6.111-19.289,17.061-36.183,31.723-49.362l132.288,179.336c-17.14,10.194-36.926,15.835-57.333,15.833
				C238.754,332.053,227.388,330.365,216.183,326.815z M356.75,253.882L356.75,253.882c-6.232,19.672-17.431,36.413-31.767,49.302
				L192.702,123.859c1.872-1.112,3.778-2.18,5.727-3.191c16.169-8.389,33.735-12.638,51.443-12.638
				c11.369,0,22.797,1.752,33.946,5.284c28.514,9.033,51.804,28.629,65.579,55.179C363.171,195.043,365.783,225.368,356.75,253.882z
				"/>
		</g>
		<path style="fill:#C9262B;" d="M449.087,38.18H50.913c-9.925,0-18,8.075-18,18V693.82c0,9.925,8.075,18,18,18h398.175
			c9.925,0,18-8.075,18-18V56.18C467.087,46.254,459.013,38.18,449.087,38.18z M50.913,44.18h398.175c6.617,0,12,5.383,12,12v342.77
			H38.913V56.18C38.913,49.563,44.296,44.18,50.913,44.18z"/>
		<g>
			<g>
				<path style="fill:#FFFFFF;" d="M242.815,466.616v63.666h-17.644l-24.193-28.922v28.922h-20.918v-63.666h17.645l24.192,28.923
					v-28.923H242.815z"/>
				<path style="fill:#FFFFFF;" d="M268.099,527.463c-5.457-2.85-9.732-6.806-12.824-11.869c-3.093-5.062-4.639-10.778-4.639-17.145
					s1.546-12.081,4.639-17.144c3.092-5.062,7.367-9.019,12.824-11.869c5.457-2.85,11.61-4.275,18.463-4.275
					c6.851,0,13.006,1.425,18.463,4.275c5.457,2.851,9.731,6.807,12.824,11.869c3.092,5.063,4.639,10.777,4.639,17.144
					s-1.547,12.083-4.639,17.145c-3.093,5.063-7.367,9.02-12.824,11.869c-5.457,2.849-11.612,4.274-18.463,4.274
					C279.709,531.738,273.556,530.312,268.099,527.463z M293.792,512.41c2.151-1.303,3.865-3.152,5.139-5.548
					c1.273-2.395,1.91-5.198,1.91-8.413c0-3.213-0.637-6.017-1.91-8.413c-1.273-2.395-2.987-4.243-5.139-5.548
					c-2.153-1.303-4.564-1.956-7.23-1.956c-2.669,0-5.079,0.652-7.23,1.956c-2.153,1.305-3.866,3.153-5.139,5.548
					c-1.273,2.396-1.91,5.2-1.91,8.413c0,3.215,0.637,6.018,1.91,8.413c1.272,2.396,2.985,4.245,5.139,5.548
					c2.151,1.305,4.561,1.956,7.23,1.956C289.228,514.366,291.638,513.715,293.792,512.41z"/>
			</g>
			<g>
				<path style="fill:#FFFFFF;" d="M125.352,580.397c4.366,1.941,7.731,4.729,10.096,8.368c2.365,3.638,3.548,7.883,3.548,12.733
					c0,4.852-1.183,9.095-3.548,12.733c-2.364,3.638-5.73,6.428-10.096,8.367c-4.365,1.941-9.49,2.911-15.37,2.911h-9.187v15.644
					H79.332v-63.667h30.65C115.862,577.487,120.987,578.457,125.352,580.397z M115.166,607c1.456-1.303,2.184-3.138,2.184-5.503
					c0-2.365-0.728-4.198-2.184-5.502c-1.455-1.303-3.638-1.956-6.548-1.956h-7.822v14.916h7.822
					C111.528,608.956,113.711,608.305,115.166,607z"/>
				<path style="fill:#FFFFFF;" d="M208.755,577.487v63.667H187.29v-23.466h-19.827v23.466h-21.464v-63.667h21.464v22.556h19.827
					v-22.556H208.755z"/>
				<path style="fill:#FFFFFF;" d="M234.039,638.334c-5.457-2.85-9.732-6.806-12.824-11.87c-3.093-5.062-4.639-10.778-4.639-17.145
					s1.546-12.081,4.639-17.144c3.092-5.062,7.367-9.019,12.824-11.869c5.457-2.85,11.61-4.275,18.463-4.275
					c6.851,0,13.006,1.425,18.463,4.275c5.457,2.851,9.732,6.807,12.824,11.869c3.092,5.063,4.639,10.777,4.639,17.144
					s-1.547,12.083-4.639,17.145c-3.093,5.064-7.367,9.02-12.824,11.87c-5.457,2.849-11.612,4.274-18.463,4.274
					C245.649,642.608,239.496,641.182,234.039,638.334z M259.732,623.281c2.151-1.303,3.865-3.152,5.139-5.548
					c1.273-2.395,1.91-5.198,1.91-8.413c0-3.213-0.637-6.017-1.91-8.413c-1.273-2.394-2.987-4.243-5.139-5.548
					c-2.153-1.303-4.563-1.956-7.23-1.956c-2.669,0-5.079,0.652-7.23,1.956c-2.153,1.305-3.866,3.153-5.139,5.548
					c-1.273,2.396-1.91,5.2-1.91,8.413c0,3.215,0.637,6.019,1.91,8.413c1.272,2.396,2.985,4.245,5.139,5.548
					c2.151,1.305,4.562,1.956,7.23,1.956C255.169,625.236,257.579,624.585,259.732,623.281z"/>
				<path style="fill:#FFFFFF;" d="M309.164,594.131h-18.645v-16.644h58.754v16.644h-18.644v47.022h-21.465V594.131z"/>
				<path style="fill:#FFFFFF;" d="M368.828,638.334c-5.457-2.85-9.732-6.806-12.824-11.87c-3.093-5.062-4.639-10.778-4.639-17.145
					s1.546-12.081,4.639-17.144c3.092-5.062,7.367-9.019,12.824-11.869c5.457-2.85,11.61-4.275,18.463-4.275
					c6.851,0,13.006,1.425,18.463,4.275c5.457,2.851,9.731,6.807,12.824,11.869c3.092,5.063,4.639,10.777,4.639,17.144
					s-1.547,12.083-4.639,17.145c-3.093,5.064-7.367,9.02-12.824,11.87c-5.457,2.849-11.612,4.274-18.463,4.274
					C380.438,642.608,374.285,641.182,368.828,638.334z M394.521,623.281c2.151-1.303,3.865-3.152,5.139-5.548
					c1.273-2.395,1.91-5.198,1.91-8.413c0-3.213-0.637-6.017-1.91-8.413c-1.273-2.394-2.987-4.243-5.139-5.548
					c-2.153-1.303-4.563-1.956-7.23-1.956c-2.669,0-5.079,0.652-7.23,1.956c-2.153,1.305-3.866,3.153-5.139,5.548
					c-1.273,2.396-1.91,5.2-1.91,8.413c0,3.215,0.637,6.019,1.91,8.413c1.272,2.396,2.985,4.245,5.139,5.548
					c2.151,1.305,4.561,1.956,7.23,1.956C389.958,625.236,392.368,624.585,394.521,623.281z"/>
			</g>
		</g>
	</g>
</g>
</svg>
